<svg width="100" height="100" viewBox="0 0 100 100" fill="none" xmlns="http://www.w3.org/2000/svg">
<g clip-path="url(#clip0_520_691)">
<path d="M99.9004 49.8031L88.4253 10.0484C88.0503 8.69366 86.8175 7.75616 85.4128 7.75616H13.6018C12.1862 7.75616 10.9472 8.70773 10.58 10.0781L0.0924721 47.8078C-0.101278 48.5406 -0.00606304 49.2733 0.287687 49.9109C0.118937 50.4766 0.00028459 51.0656 0.00028459 51.6859V85.9938C0.00028459 89.4452 2.79872 92.2438 6.25028 92.2438H93.7503C97.2018 92.2438 100 89.4452 100 85.9938V51.6859C100 51.5188 99.9643 51.3608 99.9519 51.1969C100.033 50.7484 100.032 50.275 99.9004 49.8031ZM16.006 14.0063L83.0343 14.0062L92.128 45.4358H62.9936C62.853 52.9374 57.5343 58.1 49.9998 58.1C42.4653 58.1 37.2435 52.9359 37.1029 45.4359H7.24198L16.006 14.0063ZM93.7499 85.9937H6.25009V51.6858H31.9454C34.6735 59.5405 41.2984 64.3499 50 64.3499C58.7016 64.3499 65.4234 59.5405 68.1515 51.6858H93.7499V85.9937Z" fill="#1C1C1C"/>
</g>
<defs>
<clipPath id="clip0_520_691">
<rect width="100" height="100" fill="white"/>
</clipPath>
</defs>
</svg>
