<svg width="45" height="49" viewBox="0 0 45 49" fill="none" xmlns="http://www.w3.org/2000/svg">
<path d="M10.5021 40.0071C10.1042 40.0071 9.72256 39.849 9.4412 39.5677C9.15984 39.2863 9.00178 38.9047 9.00178 38.5068C9.00178 38.1089 9.15984 37.7273 9.4412 37.4459C9.72256 37.1646 10.1042 37.0065 10.5021 37.0065H31.5062C31.9041 37.0065 32.2857 37.1646 32.5671 37.4459C32.8484 37.7273 33.0065 38.1089 33.0065 38.5068C33.0065 38.9047 32.8484 39.2863 32.5671 39.5677C32.2857 39.849 31.9041 40.0071 31.5062 40.0071H10.5021ZM22.5044 4C22.9023 4 23.284 4.15807 23.5653 4.43943C23.8467 4.72079 24.0047 5.10239 24.0047 5.5003C24.0047 5.8982 23.8467 6.27981 23.5653 6.56117C23.284 6.84253 22.9023 7.00059 22.5044 7.00059H3.00059V46.0083H39.0077V23.5038C39.0077 23.1059 39.1658 22.7243 39.4471 22.443C39.7285 22.1616 40.1101 22.0036 40.508 22.0036C40.9059 22.0036 41.2875 22.1616 41.5689 22.443C41.8502 22.7243 42.0083 23.1059 42.0083 23.5038V46.0083C42.0083 46.8041 41.6922 47.5673 41.1294 48.13C40.5667 48.6928 39.8035 49.0089 39.0077 49.0089H3.00059C2.20479 49.0089 1.44157 48.6928 0.878853 48.13C0.316133 47.5673 0 46.8041 0 46.0083V7.00059C0 6.20479 0.316133 5.44157 0.878853 4.87885C1.44157 4.31613 2.20479 4 3.00059 4H22.5044Z" fill="#1C1C1C"/>
<mask id="mask0_99_675" style="mask-type:luminance" maskUnits="userSpaceOnUse" x="23" y="0" width="22" height="22">
<path d="M34 21C35.3135 21.0017 36.6143 20.7438 37.8278 20.2412C39.0413 19.7385 40.1435 19.001 41.071 18.071C42.001 17.1435 42.7385 16.0413 43.2412 14.8278C43.7438 13.6143 44.0017 12.3135 44 11C44.0017 9.68655 43.7438 8.3857 43.2411 7.17222C42.7385 5.95875 42.001 4.85656 41.071 3.92901C40.1435 2.99902 39.0413 2.26151 37.8278 1.75885C36.6143 1.25619 35.3135 0.998307 34 1.00001C32.6865 0.998334 31.3857 1.25623 30.1722 1.75889C28.9587 2.26154 27.8566 2.99904 26.929 3.92901C25.999 4.85656 25.2615 5.95875 24.7589 7.17222C24.2562 8.3857 23.9983 9.68655 24 11C23.9983 12.3135 24.2562 13.6143 24.7589 14.8278C25.2615 16.0413 25.999 17.1435 26.929 18.071C27.8566 19.001 28.9587 19.7385 30.1722 20.2411C31.3857 20.7438 32.6865 21.0017 34 21Z" fill="white" stroke="white" stroke-width="2" stroke-linejoin="round"/>
<path d="M30 11L33 14L39 8" stroke="black" stroke-width="2" stroke-linecap="round" stroke-linejoin="round"/>
</mask>
<g mask="url(#mask0_99_675)">
<path d="M22 -1H46V23H22V-1Z" fill="black"/>
</g>
</svg>
