<svg width="45" height="48" viewBox="0 0 45 48" fill="none" xmlns="http://www.w3.org/2000/svg">
<path d="M22.5194 26.9808L41.8823 7.65703L37.3814 3.15615L18.0186 22.48L22.5194 26.9808ZM35.9111 0.560634C36.6852 -0.153507 37.8825 -0.21952 38.6416 0.560634L44.4268 6.34878C44.6061 6.52772 44.7484 6.74028 44.8455 6.9743C44.9426 7.20831 44.9926 7.45918 44.9926 7.71254C44.9926 7.9659 44.9426 8.21678 44.8455 8.45079C44.7484 8.68481 44.6061 8.89737 44.4268 9.07631L24.0828 29.4323C23.9032 29.6121 23.6899 29.7544 23.455 29.8513C23.2202 29.9481 22.9685 29.9974 22.7145 29.9964H16.9323C16.4206 29.9964 15.9299 29.7932 15.5681 29.4313C15.2062 29.0695 15.003 28.5788 15.003 28.0671V22.2849C15.003 21.7748 15.204 21.2797 15.5671 20.9197L35.9111 0.560634ZM10.5021 38.9982C10.1042 38.9982 9.72256 38.8402 9.4412 38.5588C9.15984 38.2774 9.00178 37.8958 9.00178 37.4979C9.00178 37.1 9.15984 36.7184 9.4412 36.4371C9.72256 36.1557 10.1042 35.9976 10.5021 35.9976H31.5062C31.9041 35.9976 32.2857 36.1557 32.5671 36.4371C32.8484 36.7184 33.0065 37.1 33.0065 37.4979C33.0065 37.8958 32.8484 38.2774 32.5671 38.5588C32.2857 38.8402 31.9041 38.9982 31.5062 38.9982H10.5021ZM22.5044 2.99111C22.9023 2.99111 23.284 3.14918 23.5653 3.43054C23.8467 3.7119 24.0047 4.09351 24.0047 4.49141C24.0047 4.88931 23.8467 5.27092 23.5653 5.55228C23.284 5.83364 22.9023 5.99171 22.5044 5.99171H3.00059V44.9994H39.0077V22.495C39.0077 22.0971 39.1658 21.7155 39.4471 21.4341C39.7285 21.1527 40.1101 20.9947 40.508 20.9947C40.9059 20.9947 41.2875 21.1527 41.5689 21.4341C41.8502 21.7155 42.0083 22.0971 42.0083 22.495V44.9994C42.0083 45.7952 41.6922 46.5584 41.1294 47.1211C40.5667 47.6839 39.8035 48 39.0077 48H3.00059C2.20479 48 1.44157 47.6839 0.878853 47.1211C0.316133 46.5584 0 45.7952 0 44.9994V5.99171C0 5.1959 0.316133 4.43269 0.878853 3.86997C1.44157 3.30725 2.20479 2.99111 3.00059 2.99111H22.5044Z" fill="#1C1C1C"/>
</svg>
