<svg width="17" height="22" viewBox="0 0 17 22" fill="none" xmlns="http://www.w3.org/2000/svg">
<path d="M1 20.0426V17.9149C1 16.7863 1.44833 15.704 2.24635 14.9059C3.04438 14.1079 4.12674 13.6596 5.25532 13.6596H8.97872M16 21.1064L10.6809 15.7872M10.6809 21.1064L16 15.7872M3.12766 5.14893C3.12766 6.27752 3.57599 7.35987 4.37401 8.1579C5.17204 8.95593 6.2544 9.40425 7.38298 9.40425C8.51156 9.40425 9.59392 8.95593 10.3919 8.1579C11.19 7.35987 11.6383 6.27752 11.6383 5.14893C11.6383 4.02035 11.19 2.938 10.3919 2.13997C9.59392 1.34194 8.51156 0.893616 7.38298 0.893616C6.2544 0.893616 5.17204 1.34194 4.37401 2.13997C3.57599 2.938 3.12766 4.02035 3.12766 5.14893Z" stroke="#666666" stroke-linecap="round" stroke-linejoin="round"/>
</svg>
