<svg width="184" height="36" viewBox="0 0 184 36" fill="none" xmlns="http://www.w3.org/2000/svg">
<g id="&#234;&#183;&#184;&#235;&#163;&#185; 4431">
<path id="&#237;&#140;&#168;&#236;&#138;&#164; 1" fill-rule="evenodd" clip-rule="evenodd" d="M82.8588 9.3525C82.4738 7.8145 81.8978 6.0835 78.2448 6.0835C74.5918 6.0835 74.0188 7.4295 74.0188 8.5835C74.0188 12.6215 90.3588 9.7375 90.3588 19.1605C90.3588 26.6605 83.0588 28.0065 79.0168 28.0065C73.0578 28.0065 66.7168 26.0835 66.5168 19.1605H73.6298C73.6298 21.2755 74.9758 22.8145 79.2048 22.8145C82.6648 22.8145 83.6258 21.0835 83.6258 20.1225C83.6258 15.8915 67.4778 19.1605 67.4778 9.5455C67.4798 5.8915 69.7868 1.0835 78.0528 1.0835C83.0528 1.0835 89.2028 2.2375 89.7788 9.5455H82.8588V9.3525Z" fill="black"/>
<path id="&#237;&#140;&#168;&#236;&#138;&#164; 2" fill-rule="evenodd" clip-rule="evenodd" d="M128.609 27.0445H121.689V11.6595C121.689 7.81346 119.959 6.65946 118.037 6.65946C114.577 6.65946 113.423 8.77446 113.423 11.8515V27.0445H106.695V11.6595C106.695 9.54446 106.695 6.46746 102.658 6.46746C99.3898 6.46746 98.4288 8.58246 98.4288 11.4675V27.0445H91.5088V1.65946H98.0448V5.31346H98.2368C98.8794 3.93559 99.9168 2.77961 101.217 1.99216C102.518 1.20471 104.023 0.821269 105.542 0.890462C109.387 0.890462 110.925 2.23646 112.842 4.92846C113.809 3.77546 115.538 0.890462 119.767 0.890462C124.767 0.890462 128.802 3.77546 128.802 9.35246V27.0445H128.609Z" fill="black"/>
<path id="&#237;&#140;&#168;&#236;&#138;&#164; 3" fill-rule="evenodd" clip-rule="evenodd" d="M155.33 19.7375C153.6 25.8915 148.41 27.8145 143.988 27.8145C136.688 27.8145 131.108 24.3525 131.108 13.9685C131.109 10.8915 132.262 1.0835 143.609 1.0835C148.799 1.0835 155.909 3.3915 155.909 15.1215V16.2755H138.029C138.221 18.1985 138.606 22.4295 144.18 22.4295C145.104 22.4904 146.025 22.2646 146.816 21.7828C147.607 21.301 148.231 20.5867 148.601 19.7375H155.33ZM148.602 11.8525C148.218 7.8145 145.527 6.4685 143.409 6.4685C140.141 6.4685 138.409 8.3915 138.026 11.8535L148.602 11.8525Z" fill="black"/>
<path id="&#237;&#140;&#168;&#236;&#138;&#164; 4" fill-rule="evenodd" clip-rule="evenodd" d="M183.204 0.891453V24.1605C183.204 28.3915 182.82 35.5065 170.132 35.5065C164.749 35.5065 159.175 33.3915 158.79 28.1985H166.29C166.674 29.3525 167.059 30.6985 171.096 30.6985C174.748 30.6985 176.479 28.9675 176.479 25.1215V22.2375H176.287C175.134 24.1605 173.404 25.8915 169.367 25.8915C163.023 25.8915 158.217 21.8535 158.217 13.1995C158.214 4.73745 163.214 0.506453 168.979 0.506453C170.528 0.419767 172.071 0.770519 173.43 1.51866C174.79 2.26681 175.912 3.38219 176.668 4.73745H176.86V0.891453H183.204ZM170.514 19.9295C175.128 19.9295 176.281 16.2755 176.281 12.8145C176.281 8.77645 174.166 5.69945 170.514 5.69945C168.014 5.69945 165.131 7.43045 165.131 13.1995C165.131 16.2765 166.477 19.9295 170.514 19.9295Z" fill="black"/>
<path id="&#237;&#140;&#168;&#236;&#138;&#164; 5" fill-rule="evenodd" clip-rule="evenodd" d="M16.5378 27.0455C16.5461 28.1335 16.3381 29.2122 15.9257 30.2191C15.5133 31.2259 14.9048 32.1407 14.1356 32.9102C13.3664 33.6796 12.4518 34.2885 11.4451 34.7012C10.4385 35.114 9.35974 35.3225 8.27175 35.3145C7.18351 35.3229 6.10447 35.1147 5.09745 34.7021C4.09042 34.2895 3.17551 33.6808 2.40599 32.9112C1.63647 32.1417 1.02769 31.2268 0.615107 30.2198C0.202521 29.2127 -0.0056359 28.1337 0.00275142 27.0455C-0.0257367 25.9427 0.167245 24.8455 0.570278 23.8186C0.973312 22.7917 1.57821 21.8561 2.34918 21.0672C3.12016 20.2782 4.04154 19.6519 5.05883 19.2253C6.07612 18.7987 7.16864 18.5804 8.27175 18.5835C10.4787 18.6442 12.5755 19.5613 14.1182 21.1407C15.661 22.72 16.5287 24.8377 16.5378 27.0455Z" fill="black"/>
<path id="&#237;&#140;&#168;&#236;&#138;&#164; 6" fill-rule="evenodd" clip-rule="evenodd" d="M33.0698 27.0455C33.0698 29.2378 32.1989 31.3403 30.6487 32.8904C29.0986 34.4406 26.9961 35.3115 24.8038 35.3115C22.6115 35.3115 20.509 34.4406 18.9588 32.8904C17.4087 31.3403 16.5378 29.2378 16.5378 27.0455C16.5135 24.8277 17.3703 22.691 18.9202 21.1044C20.47 19.5178 22.5861 18.6112 24.8038 18.5835C27.0215 18.6112 29.1376 19.5178 30.6874 21.1044C32.2372 22.691 33.0941 24.8277 33.0698 27.0455Z" fill="black"/>
<path id="&#237;&#140;&#168;&#236;&#138;&#164; 7" fill-rule="evenodd" clip-rule="evenodd" d="M49.7938 27.0455C49.7924 28.68 49.3064 30.2775 48.3973 31.6359C47.4882 32.9943 46.1967 34.0527 44.6862 34.6773C43.1757 35.3018 41.5139 35.4645 39.9109 35.1448C38.3079 34.8251 36.8357 34.0373 35.6804 32.881C34.525 31.7247 33.7385 30.2518 33.4201 28.6485C33.1017 27.0453 33.2658 25.3836 33.8917 23.8736C34.5175 22.3636 35.577 21.073 36.9362 20.1651C38.2953 19.2571 39.8932 18.7725 41.5278 18.7725C42.6202 18.7483 43.7061 18.9457 44.7201 19.3527C45.7341 19.7597 46.6552 20.368 47.4277 21.1408C48.2001 21.9135 48.808 22.8348 49.2147 23.8489C49.6214 24.8631 49.8184 25.9491 49.7938 27.0415" fill="black"/>
<path id="&#237;&#140;&#168;&#236;&#138;&#164; 8" fill-rule="evenodd" clip-rule="evenodd" d="M33.0698 10.3145C33.0698 12.5067 32.1989 14.6092 30.6487 16.1594C29.0985 17.7096 26.9961 18.5805 24.8038 18.5805C22.6115 18.5805 20.509 17.7096 18.9588 16.1594C17.4087 14.6092 16.5378 12.5067 16.5378 10.3145C16.5378 8.12218 17.4087 6.01969 18.9588 4.46952C20.509 2.91934 22.6115 2.04846 24.8038 2.04846C26.9961 2.04846 29.0985 2.91934 30.6487 4.46952C32.1989 6.01969 33.0698 8.12218 33.0698 10.3145Z" fill="black"/>
<path id="&#237;&#140;&#168;&#236;&#138;&#164; 9" fill-rule="evenodd" clip-rule="evenodd" d="M49.7938 10.3145C49.7938 11.4 49.58 12.4748 49.1646 13.4777C48.7492 14.4806 48.1403 15.3918 47.3727 16.1594C46.6052 16.927 45.6939 17.5358 44.691 17.9513C43.6882 18.3667 42.6133 18.5805 41.5278 18.5805C40.4423 18.5805 39.3674 18.3667 38.3645 17.9513C37.3616 17.5358 36.4504 16.927 35.6828 16.1594C34.9153 15.3918 34.3064 14.4806 33.891 13.4777C33.4756 12.4748 33.2618 11.4 33.2618 10.3145C33.2618 9.22896 33.4756 8.15408 33.891 7.1512C34.3064 6.14832 34.9153 5.23709 35.6828 4.46952C36.4504 3.70195 37.3616 3.09308 38.3645 2.67767C39.3674 2.26227 40.4423 2.04846 41.5278 2.04846C42.6133 2.04846 43.6882 2.26227 44.691 2.67767C45.6939 3.09308 46.6052 3.70195 47.3727 4.46952C48.1403 5.23709 48.7492 6.14832 49.1646 7.1512C49.58 8.15408 49.7938 9.22896 49.7938 10.3145Z" fill="black"/>
<path id="&#237;&#140;&#168;&#236;&#138;&#164; 10" fill-rule="evenodd" clip-rule="evenodd" d="M66.5188 10.3144C66.5188 12.5067 65.6479 14.6092 64.0977 16.1594C62.5475 17.7096 60.445 18.5804 58.2528 18.5804C56.0605 18.5804 53.958 17.7096 52.4078 16.1594C50.8576 14.6092 49.9868 12.5067 49.9868 10.3144C49.9784 9.22646 50.1864 8.14767 50.5988 7.14084C51.0112 6.13401 51.6197 5.21925 52.3889 4.44976C53.1581 3.68028 54.0727 3.07144 55.0794 2.65868C56.0861 2.24591 57.1648 2.03746 58.2528 2.04545C60.4405 2.06194 62.5338 2.93853 64.0805 4.48579C65.6272 6.03305 66.5031 8.12674 66.5188 10.3144Z" fill="black"/>
</g>
</svg>
