<svg width="20" height="20" viewBox="0 0 20 20" fill="none" xmlns="http://www.w3.org/2000/svg">
<path id="Vector" d="M18.8889 19.0001L14.5459 14.6571M14.5459 14.6571C15.2888 13.9142 15.8781 13.0323 16.2801 12.0616C16.6822 11.091 16.8891 10.0507 16.8891 9.00008C16.8891 7.94948 16.6822 6.90917 16.2801 5.93854C15.8781 4.96791 15.2888 4.08597 14.5459 3.34308C13.803 2.6002 12.9211 2.01091 11.9504 1.60886C10.9798 1.20681 9.93948 0.999878 8.88888 0.999878C7.83828 0.999878 6.79796 1.20681 5.82733 1.60886C4.8567 2.01091 3.97477 2.6002 3.23188 3.34308C1.73155 4.84341 0.888672 6.8783 0.888672 9.00008C0.888672 11.1219 1.73155 13.1568 3.23188 14.6571C4.73221 16.1574 6.76709 17.0003 8.88888 17.0003C11.0107 17.0003 13.0455 16.1574 14.5459 14.6571Z" stroke="white" stroke-width="1.5" stroke-linecap="round" stroke-linejoin="round"/>
</svg>
