<svg width="18" height="22" viewBox="0 0 18 22" fill="none" xmlns="http://www.w3.org/2000/svg">
<g id="Vector">
<mask id="path-1-inside-1_1_67" fill="white">
<path d="M2.86274 22C2.30052 22 1.83119 21.8118 1.45474 21.4353C1.07748 21.0581 0.888855 20.5883 0.888855 20.0261V6.86278C0.888855 6.30056 1.07748 5.83122 1.45474 5.45478C1.83119 5.07752 2.30052 4.88889 2.86274 4.88889H5.16663V4.27778C5.16663 3.08978 5.5826 2.07981 6.41452 1.24789C7.24645 0.415963 8.25641 0 9.44441 0C10.6324 0 11.6424 0.415963 12.4743 1.24789C13.3062 2.07981 13.7222 3.08978 13.7222 4.27778V4.88889H16.0261C16.5883 4.88889 17.0576 5.07752 17.4341 5.45478C17.8113 5.83122 18 6.30056 18 6.86278V20.0261C18 20.5883 17.8117 21.0577 17.4353 21.4341C17.058 21.8114 16.5883 22 16.0261 22H2.86274ZM2.86274 20.7778H16.0261C16.2135 20.7778 16.3858 20.6996 16.5431 20.5431C16.6995 20.3859 16.7777 20.2135 16.7777 20.0261V6.86278C16.7777 6.67537 16.6995 6.50304 16.5431 6.34578C16.3858 6.18933 16.2135 6.11111 16.0261 6.11111H13.7222V9.16667C13.7222 9.34022 13.6639 9.48567 13.5474 9.603C13.4301 9.71952 13.2846 9.77778 13.1111 9.77778C12.9375 9.77778 12.7921 9.71952 12.6747 9.603C12.5582 9.48567 12.5 9.34022 12.5 9.16667V6.11111H6.38885V9.16667C6.38885 9.34022 6.3306 9.48567 6.21408 9.603C6.09674 9.71952 5.9513 9.77778 5.77774 9.77778C5.60419 9.77778 5.45874 9.71952 5.34141 9.603C5.22489 9.48567 5.16663 9.34022 5.16663 9.16667V6.11111H2.86274C2.67534 6.11111 2.503 6.18933 2.34574 6.34578C2.1893 6.50304 2.11108 6.67537 2.11108 6.86278V20.0261C2.11108 20.2135 2.1893 20.3859 2.34574 20.5431C2.503 20.6996 2.67534 20.7778 2.86274 20.7778ZM6.38885 4.88889H12.5V4.27778C12.5 3.41733 12.2058 2.69296 11.6175 2.10467C11.0292 1.51637 10.3049 1.22222 9.44441 1.22222C8.58397 1.22222 7.8596 1.51637 7.2713 2.10467C6.683 2.69296 6.38885 3.41733 6.38885 4.27778V4.88889Z"/>
</mask>
<path d="M2.86274 22C2.30052 22 1.83119 21.8118 1.45474 21.4353C1.07748 21.0581 0.888855 20.5883 0.888855 20.0261V6.86278C0.888855 6.30056 1.07748 5.83122 1.45474 5.45478C1.83119 5.07752 2.30052 4.88889 2.86274 4.88889H5.16663V4.27778C5.16663 3.08978 5.5826 2.07981 6.41452 1.24789C7.24645 0.415963 8.25641 0 9.44441 0C10.6324 0 11.6424 0.415963 12.4743 1.24789C13.3062 2.07981 13.7222 3.08978 13.7222 4.27778V4.88889H16.0261C16.5883 4.88889 17.0576 5.07752 17.4341 5.45478C17.8113 5.83122 18 6.30056 18 6.86278V20.0261C18 20.5883 17.8117 21.0577 17.4353 21.4341C17.058 21.8114 16.5883 22 16.0261 22H2.86274ZM2.86274 20.7778H16.0261C16.2135 20.7778 16.3858 20.6996 16.5431 20.5431C16.6995 20.3859 16.7777 20.2135 16.7777 20.0261V6.86278C16.7777 6.67537 16.6995 6.50304 16.5431 6.34578C16.3858 6.18933 16.2135 6.11111 16.0261 6.11111H13.7222V9.16667C13.7222 9.34022 13.6639 9.48567 13.5474 9.603C13.4301 9.71952 13.2846 9.77778 13.1111 9.77778C12.9375 9.77778 12.7921 9.71952 12.6747 9.603C12.5582 9.48567 12.5 9.34022 12.5 9.16667V6.11111H6.38885V9.16667C6.38885 9.34022 6.3306 9.48567 6.21408 9.603C6.09674 9.71952 5.9513 9.77778 5.77774 9.77778C5.60419 9.77778 5.45874 9.71952 5.34141 9.603C5.22489 9.48567 5.16663 9.34022 5.16663 9.16667V6.11111H2.86274C2.67534 6.11111 2.503 6.18933 2.34574 6.34578C2.1893 6.50304 2.11108 6.67537 2.11108 6.86278V20.0261C2.11108 20.2135 2.1893 20.3859 2.34574 20.5431C2.503 20.6996 2.67534 20.7778 2.86274 20.7778ZM6.38885 4.88889H12.5V4.27778C12.5 3.41733 12.2058 2.69296 11.6175 2.10467C11.0292 1.51637 10.3049 1.22222 9.44441 1.22222C8.58397 1.22222 7.8596 1.51637 7.2713 2.10467C6.683 2.69296 6.38885 3.41733 6.38885 4.27778V4.88889Z" fill="black"/>
<path d="M2.86108 20.7778V6.11111H1.36108V20.7778H2.86108ZM1.45474 5.45478L2.51426 6.51659L2.51655 6.51429L1.45474 5.45478ZM5.16663 4.88889V6.38889H6.66663V4.88889H5.16663ZM13.7222 4.27778H15.2222H13.7222ZM13.7222 4.88889H12.2222V6.38889H13.7222V4.88889ZM17.4341 5.45478L16.3723 6.51429L16.3746 6.51658L17.4341 5.45478ZM16.5431 20.5431L17.601 21.6065L17.6065 21.601L16.5431 20.5431ZM16.5431 6.34578L17.6065 5.28786L17.601 5.28237L16.5431 6.34578ZM13.7222 6.11111V4.61111H12.2222V6.11111H13.7222ZM13.5474 9.603L14.6044 10.6674L14.6118 10.66L13.5474 9.603ZM12.6747 9.603L11.6104 10.66L11.6178 10.6673L12.6747 9.603ZM12.5 6.11111H14V4.61111H12.5V6.11111ZM6.38885 6.11111V4.61111H4.88885V6.11111H6.38885ZM6.21408 9.603L7.27106 10.6674L7.27843 10.66L6.21408 9.603ZM5.34141 9.603L4.27703 10.66L4.28445 10.6673L5.34141 9.603ZM5.16663 6.11111H6.66663V4.61111H5.16663V6.11111ZM2.34574 6.34578L1.28783 5.28235L1.28233 5.28788L2.34574 6.34578ZM2.34574 20.5431L1.28232 21.601L1.28784 21.6065L2.34574 20.5431ZM6.38885 4.88889H4.88885V6.38889H6.38885V4.88889ZM12.5 4.88889V6.38889H14V4.88889H12.5ZM2.86274 20.5C2.67356 20.5 2.59349 20.4528 2.5154 20.3747L0.394083 22.496C1.06889 23.1708 1.92748 23.5 2.86274 23.5V20.5ZM2.5154 20.3747C2.43584 20.2951 2.38885 20.2143 2.38885 20.0261H-0.611145C-0.611145 20.9624 -0.280868 21.821 0.394083 22.496L2.5154 20.3747ZM2.38885 20.0261V6.86278H-0.611145V20.0261H2.38885ZM2.38885 6.86278C2.38885 6.67461 2.43577 6.5949 2.51426 6.51658L0.395231 4.39297C-0.280803 5.06754 -0.611145 5.9265 -0.611145 6.86278H2.38885ZM2.51655 6.51429C2.59487 6.43581 2.67458 6.38889 2.86274 6.38889V3.38889C1.92646 3.38889 1.06751 3.71923 0.392937 4.39526L2.51655 6.51429ZM2.86274 6.38889H5.16663V3.38889H2.86274V6.38889ZM6.66663 4.88889V4.27778H3.66663V4.88889H6.66663ZM6.66663 4.27778C6.66663 3.48324 6.92763 2.8561 7.47518 2.30855L5.35386 0.187229C4.23756 1.30353 3.66663 2.69632 3.66663 4.27778H6.66663ZM7.47518 2.30855C8.02273 1.761 8.64987 1.5 9.44441 1.5V-1.5C7.86295 -1.5 6.47016 -0.929073 5.35386 0.187229L7.47518 2.30855ZM9.44441 1.5C10.2389 1.5 10.8661 1.761 11.4136 2.30855L13.535 0.187229C12.4187 -0.929073 11.0259 -1.5 9.44441 -1.5V1.5ZM11.4136 2.30855C11.9612 2.8561 12.2222 3.48324 12.2222 4.27778H15.2222C15.2222 2.69632 14.6513 1.30353 13.535 0.187229L11.4136 2.30855ZM12.2222 4.27778V4.88889H15.2222V4.27778H12.2222ZM13.7222 6.38889H16.0261V3.38889H13.7222V6.38889ZM16.0261 6.38889C16.2142 6.38889 16.294 6.43581 16.3723 6.51429L18.4959 4.39526C17.8213 3.71923 16.9624 3.38889 16.0261 3.38889V6.38889ZM16.3746 6.51658C16.453 6.5949 16.5 6.67461 16.5 6.86278H19.5C19.5 5.9265 19.1696 5.06755 18.4936 4.39297L16.3746 6.51658ZM16.5 6.86278V20.0261H19.5V6.86278H16.5ZM16.5 20.0261C16.5 20.2153 16.4527 20.2954 16.3746 20.3735L18.496 22.4948C19.1708 21.82 19.5 20.9614 19.5 20.0261H16.5ZM16.3746 20.3735C16.2951 20.453 16.2143 20.5 16.0261 20.5V23.5C16.9623 23.5 17.821 23.1697 18.496 22.4948L16.3746 20.3735ZM16.0261 20.5H2.86274V23.5H16.0261V20.5ZM2.86274 22.2778H16.0261V19.2778H2.86274V22.2778ZM16.0261 22.2778C16.6818 22.2778 17.2181 21.9874 17.601 21.6065L15.4852 19.4797C15.5119 19.4531 15.5739 19.3995 15.6759 19.3532C15.7825 19.3048 15.9038 19.2778 16.0261 19.2778V22.2778ZM17.6065 21.601C17.9874 21.2181 18.2777 20.6819 18.2777 20.0261H15.2777C15.2777 19.9038 15.3048 19.7825 15.3532 19.6759C15.3995 19.5739 15.453 19.512 15.4797 19.4852L17.6065 21.601ZM18.2777 20.0261V6.86278H15.2777V20.0261H18.2777ZM18.2777 6.86278C18.2777 6.20701 17.9874 5.67077 17.6065 5.28788L15.4797 7.40368C15.453 7.37692 15.3995 7.315 15.3532 7.21295C15.3048 7.10636 15.2777 6.98509 15.2777 6.86278H18.2777ZM17.601 5.28237C17.2181 4.90146 16.6819 4.61111 16.0261 4.61111V7.61111C15.9038 7.61111 15.7825 7.58404 15.6759 7.53566C15.5739 7.48934 15.5119 7.43581 15.4852 7.40919L17.601 5.28237ZM16.0261 4.61111H13.7222V7.61111H16.0261V4.61111ZM12.2222 6.11111V9.16667H15.2222V6.11111H12.2222ZM12.2222 9.16667C12.2222 9.08296 12.2369 8.97097 12.286 8.84816C12.3358 8.72393 12.4076 8.62206 12.4831 8.54604L14.6118 10.66C15.0223 10.2465 15.2222 9.71441 15.2222 9.16667H12.2222ZM12.4905 8.53865C12.5665 8.46316 12.6683 8.3914 12.7926 8.34164C12.9154 8.29245 13.0274 8.27778 13.1111 8.27778V11.2778C13.6588 11.2778 14.1909 11.0779 14.6044 10.6673L12.4905 8.53865ZM13.1111 8.27778C13.1948 8.27778 13.3068 8.29245 13.4296 8.34164C13.5538 8.3914 13.6557 8.46316 13.7317 8.53865L11.6178 10.6673C12.0312 11.0779 12.5633 11.2778 13.1111 11.2778V8.27778ZM13.7391 8.54604C13.8146 8.62206 13.8863 8.72393 13.9361 8.84816C13.9853 8.97097 14 9.08296 14 9.16667H11C11 9.71441 11.1998 10.2465 11.6104 10.66L13.7391 8.54604ZM14 9.16667V6.11111H11V9.16667H14ZM12.5 4.61111H6.38885V7.61111H12.5V4.61111ZM4.88885 6.11111V9.16667H7.88885V6.11111H4.88885ZM4.88885 9.16667C4.88885 9.08296 4.90352 8.97097 4.95271 8.84816C5.00247 8.72393 5.07424 8.62206 5.14973 8.54604L7.27843 10.66C7.689 10.2465 7.88885 9.71441 7.88885 9.16667H4.88885ZM5.15712 8.53865C5.23314 8.46316 5.33501 8.3914 5.45924 8.34164C5.58204 8.29245 5.69404 8.27778 5.77774 8.27778V11.2778C6.32549 11.2778 6.85759 11.0779 7.27104 10.6673L5.15712 8.53865ZM5.77774 8.27778C5.86145 8.27778 5.97344 8.29245 6.09625 8.34164C6.22048 8.3914 6.32235 8.46316 6.39837 8.53865L4.28445 10.6673C4.6979 11.0779 5.23 11.2778 5.77774 11.2778V8.27778ZM6.40576 8.54604C6.48125 8.62206 6.55301 8.72393 6.60277 8.84816C6.65196 8.97097 6.66663 9.08296 6.66663 9.16667H3.66663C3.66663 9.71441 3.86648 10.2465 4.27706 10.66L6.40576 8.54604ZM6.66663 9.16667V6.11111H3.66663V9.16667H6.66663ZM5.16663 4.61111H2.86274V7.61111H5.16663V4.61111ZM2.86274 4.61111C2.20697 4.61111 1.67074 4.90146 1.28784 5.28237L3.40365 7.40919C3.37689 7.43581 3.31497 7.48934 3.21291 7.53566C3.10633 7.58404 2.98506 7.61111 2.86274 7.61111V4.61111ZM1.28233 5.28788C0.901421 5.67077 0.611077 6.207 0.611077 6.86278H3.61108C3.61108 6.9851 3.584 7.10636 3.53562 7.21295C3.4893 7.315 3.43578 7.37692 3.40916 7.40368L1.28233 5.28788ZM0.611077 6.86278V20.0261H3.61108V6.86278H0.611077ZM0.611077 20.0261C0.611077 20.6819 0.901419 21.2181 1.28233 21.601L3.40916 19.4852C3.43578 19.512 3.4893 19.5739 3.53563 19.6759C3.584 19.7825 3.61108 19.9038 3.61108 20.0261H0.611077ZM1.28784 21.6065C1.67074 21.9874 2.20697 22.2778 2.86274 22.2778V19.2778C2.98506 19.2778 3.10632 19.3048 3.21291 19.3532C3.31496 19.3996 3.37688 19.4531 3.40365 19.4797L1.28784 21.6065ZM6.38885 6.38889H12.5V3.38889H6.38885V6.38889ZM14 4.88889V4.27778H11V4.88889H14ZM14 4.27778C14 3.03472 13.5584 1.92418 12.6782 1.04401L10.5569 3.16533C10.8533 3.46174 11 3.79995 11 4.27778H14ZM12.6782 1.04401C11.798 0.163831 10.6875 -0.277778 9.44441 -0.277778V2.72222C9.92224 2.72222 10.2604 2.86891 10.5569 3.16533L12.6782 1.04401ZM9.44441 -0.277778C8.20135 -0.277778 7.09082 0.163831 6.21064 1.04401L8.33196 3.16533C8.62838 2.86891 8.96658 2.72222 9.44441 2.72222V-0.277778ZM6.21064 1.04401C5.33046 1.92418 4.88885 3.03472 4.88885 4.27778H7.88885C7.88885 3.79995 8.03554 3.46174 8.33196 3.16533L6.21064 1.04401ZM4.88885 4.27778V4.88889H7.88885V4.27778H4.88885Z" fill="black" mask="url(#path-1-inside-1_1_67)"/>
</g>
</svg>
