<svg width="27" height="48" viewBox="0 0 27 48" fill="none" xmlns="http://www.w3.org/2000/svg">
<path d="M0.87965 5.12698C0.600766 4.8481 0.379545 4.51701 0.228614 4.15263C0.0776833 3.78826 2.93852e-09 3.39772 0 3.00332C-2.93852e-09 2.60891 0.0776833 2.21838 0.228614 1.854C0.379545 1.48962 0.600766 1.15853 0.87965 0.87965C1.15853 0.600766 1.48962 0.379545 1.854 0.228614C2.21838 0.0776833 2.60891 -2.93852e-09 3.00332 0C3.39772 2.93852e-09 3.78826 0.0776833 4.15263 0.228614C4.51701 0.379545 4.8481 0.600766 5.12698 0.87965L26.1237 21.8763C26.403 22.155 26.6246 22.486 26.7758 22.8504C26.9271 23.2148 27.0049 23.6055 27.0049 24C27.0049 24.3945 26.9271 24.7852 26.7758 25.1496C26.6246 25.514 26.403 25.845 26.1237 26.1237L5.12698 47.1203C4.8481 47.3992 4.51701 47.6205 4.15263 47.7714C3.78826 47.9223 3.39772 48 3.00332 48C2.60891 48 2.21838 47.9223 1.854 47.7714C1.48962 47.6205 1.15853 47.3992 0.87965 47.1203C0.600766 46.8415 0.379545 46.5104 0.228614 46.146C0.0776833 45.7816 0 45.3911 0 44.9967C0 44.6023 0.0776833 44.2117 0.228614 43.8474C0.379545 43.483 0.600766 43.1519 0.87965 42.873L19.7587 24L0.87965 5.12698Z" fill="white"/>
</svg>
