<svg width="27" height="48" viewBox="0 0 27 48" fill="none" xmlns="http://www.w3.org/2000/svg">
<path d="M26.1252 42.873C26.4041 43.1519 26.6253 43.483 26.7763 43.8474C26.9272 44.2118 27.0049 44.6023 27.0049 44.9967C27.0049 45.3911 26.9272 45.7816 26.7763 46.146C26.6253 46.5104 26.4041 46.8415 26.1252 47.1204C25.8463 47.3992 25.5153 47.6205 25.1509 47.7714C24.7865 47.9223 24.396 48 24.0016 48C23.6072 48 23.2166 47.9223 22.8522 47.7714C22.4879 47.6205 22.1568 47.3992 21.8779 47.1204L0.881218 26.1237C0.601883 25.845 0.380257 25.514 0.229042 25.1496C0.0778275 24.7852 -3.8147e-06 24.3946 -3.8147e-06 24C-3.8147e-06 23.6055 0.0778275 23.2148 0.229042 22.8504C0.380257 22.486 0.601883 22.155 0.881218 21.8763L21.8779 0.879658C22.1568 0.600773 22.4879 0.379551 22.8522 0.228619C23.2166 0.0776901 23.6072 7.62939e-06 24.0016 7.62939e-06C24.396 7.62939e-06 24.7865 0.0776901 25.1509 0.228619C25.5153 0.379551 25.8463 0.600773 26.1252 0.879658C26.4041 1.15854 26.6253 1.48962 26.7763 1.854C26.9272 2.21838 27.0049 2.60892 27.0049 3.00332C27.0049 3.39772 26.9272 3.78827 26.7763 4.15264C26.6253 4.51702 26.4041 4.8481 26.1252 5.12699L7.24621 24L26.1252 42.873Z" fill="white"/>
</svg>
