<svg width="17" height="17" viewBox="0 0 17 17" fill="none" xmlns="http://www.w3.org/2000/svg">
<g id="pw_icon">
<g id="Group">
<path id="Vector" d="M12.7568 1H4.24324C2.45205 1 1 2.58017 1 4.52941V12.4706C1 14.4198 2.45205 16 4.24324 16H12.7568C14.5479 16 16 14.4198 16 12.4706V4.52941C16 2.58017 14.5479 1 12.7568 1Z" stroke="#CCCCCC"/>
<path id="Vector_2" d="M1.03809 4.60883L6.87998 8.25294C7.36942 8.56243 7.9254 8.72545 8.49146 8.72545C9.05753 8.72545 9.61351 8.56243 10.103 8.25294L15.9611 4.60883" stroke="#CCCCCC" stroke-linecap="round" stroke-linejoin="round"/>
</g>
<path id="Vector_3" d="M8.49993 14C8.87649 14 9.18175 13.6418 9.18175 13.2C9.18175 12.7582 8.87649 12.4 8.49993 12.4C8.12338 12.4 7.81812 12.7582 7.81812 13.2C7.81812 13.6418 8.12338 14 8.49993 14Z" stroke="#CCCCCC" stroke-linecap="round" stroke-linejoin="round"/>
</g>
</svg>
