<svg width="32" height="36" viewBox="0 0 32 36" fill="none" xmlns="http://www.w3.org/2000/svg">
<g id="fa-brands:youtube-square" clip-path="url(#clip0_1_120)">
<path id="Vector" d="M13.1344 14.2102L19.8281 18.0141L13.1344 21.818V14.2102ZM31.5 5.625V30.375C31.5 32.2383 29.9883 33.75 28.125 33.75H3.375C1.51172 33.75 0 32.2383 0 30.375V5.625C0 3.76172 1.51172 2.25 3.375 2.25H28.125C29.9883 2.25 31.5 3.76172 31.5 5.625ZM28.5469 18.0211C28.5469 18.0211 28.5469 13.8305 28.0125 11.8195C27.7172 10.7086 26.8523 9.83672 25.7484 9.54141C23.7586 9 15.75 9 15.75 9C15.75 9 7.74141 9 5.75156 9.54141C4.64766 9.83672 3.78281 10.7086 3.4875 11.8195C2.95312 13.8234 2.95312 18.0211 2.95312 18.0211C2.95312 18.0211 2.95312 22.2117 3.4875 24.2227C3.78281 25.3336 4.64766 26.1703 5.75156 26.4656C7.74141 27 15.75 27 15.75 27C15.75 27 23.7586 27 25.7484 26.4586C26.8523 26.1633 27.7172 25.3266 28.0125 24.2156C28.5469 22.2117 28.5469 18.0211 28.5469 18.0211Z" fill="white"/>
</g>
<defs>
<clipPath id="clip0_1_120">
<rect width="31.5" height="36" fill="white"/>
</clipPath>
</defs>
</svg>
