<svg width="36" height="36" viewBox="0 0 36 36" fill="none" xmlns="http://www.w3.org/2000/svg">
<g id="fe:facebook">
<path id="Vector" fill-rule="evenodd" clip-rule="evenodd" d="M23.5875 33V21.3825H27.4875L28.071 16.8555H23.586V13.965C23.586 12.654 23.9505 11.76 25.8315 11.76H28.2285V7.71C27.0676 7.58646 25.9009 7.52638 24.7335 7.53C21.2775 7.53 18.912 9.6405 18.912 13.515V16.8555H15V21.3825H18.9105V33H4.656C3.741 33 3 32.259 3 31.344V4.656C3 3.741 3.741 3 4.656 3H31.344C32.259 3 33 3.741 33 4.656V31.344C33 32.259 32.259 33 31.344 33H23.5875Z" fill="white"/>
</g>
</svg>
