<svg width="36" height="36" viewBox="0 0 36 36" fill="none" xmlns="http://www.w3.org/2000/svg">
<g id="gg:instagram">
<g id="Group">
<path id="Vector" fill-rule="evenodd" clip-rule="evenodd" d="M18 10.5C16.0109 10.5 14.1032 11.2902 12.6967 12.6967C11.2902 14.1032 10.5 16.0109 10.5 18C10.5 19.9891 11.2902 21.8968 12.6967 23.3033C14.1032 24.7098 16.0109 25.5 18 25.5C19.9891 25.5 21.8968 24.7098 23.3033 23.3033C24.7098 21.8968 25.5 19.9891 25.5 18C25.5 16.0109 24.7098 14.1032 23.3033 12.6967C21.8968 11.2902 19.9891 10.5 18 10.5ZM13.5 18C13.5 19.1935 13.9741 20.3381 14.818 21.182C15.6619 22.0259 16.8065 22.5 18 22.5C19.1935 22.5 20.3381 22.0259 21.182 21.182C22.0259 20.3381 22.5 19.1935 22.5 18C22.5 16.8065 22.0259 15.6619 21.182 14.818C20.3381 13.9741 19.1935 13.5 18 13.5C16.8065 13.5 15.6619 13.9741 14.818 14.818C13.9741 15.6619 13.5 16.8065 13.5 18Z" fill="white"/>
<path id="Vector_2" d="M27 7.5C26.6022 7.5 26.2206 7.65804 25.9393 7.93934C25.658 8.22064 25.5 8.60218 25.5 9C25.5 9.39782 25.658 9.77936 25.9393 10.0607C26.2206 10.342 26.6022 10.5 27 10.5C27.3978 10.5 27.7794 10.342 28.0607 10.0607C28.342 9.77936 28.5 9.39782 28.5 9C28.5 8.60218 28.342 8.22064 28.0607 7.93934C27.7794 7.65804 27.3978 7.5 27 7.5Z" fill="white"/>
<path id="Vector_3" fill-rule="evenodd" clip-rule="evenodd" d="M7.5 1.5C5.9087 1.5 4.38258 2.13214 3.25736 3.25736C2.13214 4.38258 1.5 5.9087 1.5 7.5V28.5C1.5 30.0913 2.13214 31.6174 3.25736 32.7426C4.38258 33.8679 5.9087 34.5 7.5 34.5H28.5C30.0913 34.5 31.6174 33.8679 32.7426 32.7426C33.8679 31.6174 34.5 30.0913 34.5 28.5V7.5C34.5 5.9087 33.8679 4.38258 32.7426 3.25736C31.6174 2.13214 30.0913 1.5 28.5 1.5H7.5ZM28.5 4.5H7.5C6.70435 4.5 5.94129 4.81607 5.37868 5.37868C4.81607 5.94129 4.5 6.70435 4.5 7.5V28.5C4.5 29.2956 4.81607 30.0587 5.37868 30.6213C5.94129 31.1839 6.70435 31.5 7.5 31.5H28.5C29.2956 31.5 30.0587 31.1839 30.6213 30.6213C31.1839 30.0587 31.5 29.2956 31.5 28.5V7.5C31.5 6.70435 31.1839 5.94129 30.6213 5.37868C30.0587 4.81607 29.2956 4.5 28.5 4.5Z" fill="white"/>
</g>
</g>
</svg>
