<svg width="37" height="36" viewBox="0 0 37 36" fill="none" xmlns="http://www.w3.org/2000/svg">
<g id="ion:cafe-sharp">
<path id="Vector" d="M32 4.5H6.125V22.3833C6.12438 22.568 6.16049 22.7511 6.23122 22.9217C6.30196 23.0924 6.40591 23.2473 6.53703 23.3775L8.6218 25.463C8.75213 25.5941 8.90718 25.698 9.07796 25.7687C9.24875 25.8394 9.43187 25.8756 9.61672 25.875H24.0083C24.1931 25.8756 24.3763 25.8394 24.547 25.7687C24.7178 25.698 24.8729 25.5941 25.0032 25.463L27.088 23.3775C27.2191 23.2473 27.323 23.0924 27.3938 22.9217C27.4645 22.7511 27.5006 22.568 27.5 22.3833V13.5H29.75C30.0483 13.4999 30.3344 13.3812 30.5452 13.1702L32.7952 10.9202C33.0062 10.7094 33.1249 10.4233 33.125 10.125V5.625C33.125 5.32663 33.0065 5.04048 32.7955 4.82951C32.5845 4.61853 32.2984 4.5 32 4.5ZM30.875 9.65883L29.2838 11.25H27.5V6.75H30.875V9.65883ZM3.875 28.125H29.75V30.375H3.875V28.125Z" fill="white"/>
</g>
</svg>
