<svg width="15" height="20" viewBox="0 0 15 20" fill="none" xmlns="http://www.w3.org/2000/svg">
<path d="M10.3318 8.73L10.6929 8.38419C10.6856 8.37654 10.684 8.37258 10.6833 8.37068C10.6823 8.36818 10.6786 8.35756 10.6786 8.33333V5.55556V5.05556H10.1786H4.82143H4.32143V5.55556V8.33333C4.32143 8.35756 4.31767 8.36818 4.31671 8.37068C4.31602 8.37246 4.3146 8.37606 4.30838 8.38281C4.30581 8.38537 4.30405 8.38681 4.30316 8.38749C4.30289 8.38755 4.30256 8.38762 4.30216 8.38769C4.2999 8.38812 4.29467 8.38889 4.28571 8.38889C4.27676 8.38889 4.27152 8.38812 4.26927 8.38769C4.26887 8.38762 4.26854 8.38755 4.26826 8.38749C4.26725 8.38672 4.26511 8.38496 4.26192 8.38168L3.90323 8.72998L4.26434 8.38419C4.25701 8.37654 4.25545 8.37258 4.25472 8.37068C4.25376 8.36818 4.25 8.35756 4.25 8.33333V5.55556V5.05556H3.75H1.73036C1.40354 5.05556 1.12936 5.20297 0.918123 5.42089L0.918118 5.42088L0.916321 5.42276C0.705483 5.64254 0.571429 5.91858 0.571429 6.23889V18.2056C0.571429 18.5259 0.705483 18.8019 0.916316 19.0217L0.918124 19.0236C1.12936 19.2415 1.40354 19.3889 1.73036 19.3889H13.2696C13.5965 19.3889 13.8706 19.2415 14.0819 19.0236L14.0837 19.0217C14.2945 18.8019 14.4286 18.5259 14.4286 18.2056V6.23889C14.4286 5.91859 14.2945 5.64254 14.0837 5.42275L14.0819 5.42089C13.8706 5.20297 13.5965 5.05556 13.2696 5.05556H11.25H10.75V5.55556V8.33333C10.75 8.35756 10.7462 8.36818 10.7453 8.37068C10.7446 8.37246 10.7432 8.37605 10.7369 8.38281C10.7344 8.38537 10.7326 8.38681 10.7317 8.38749C10.7315 8.38755 10.7311 8.38762 10.7307 8.38769C10.7285 8.38812 10.7232 8.38889 10.7143 8.38889C10.7053 8.38889 10.7001 8.38812 10.6978 8.38769C10.6974 8.38762 10.6971 8.38755 10.6968 8.38749C10.6958 8.38672 10.6937 8.38496 10.6905 8.38168L10.3318 8.73ZM10.3318 8.73C10.4346 8.83593 10.5621 8.88889 10.7143 8.88889C10.8664 8.88889 10.9939 8.83593 11.0968 8.73L3.75 8.33333C3.75 8.49111 3.80107 8.62333 3.90321 8.73C4.00607 8.83593 4.13357 8.88889 4.28571 8.88889C4.43786 8.88889 4.56536 8.83593 4.66821 8.73C4.77036 8.62333 4.82143 8.49111 4.82143 8.33333V6.05556V5.55556H5.32143H9.67857H10.1786V6.05556V8.33333C10.1786 8.49111 10.2296 8.62333 10.3318 8.73ZM0.855619 5.30635L0.856368 5.30557C1.08841 5.06441 1.36802 4.94444 1.73036 4.94444H3.75H4.25V4.44444V3.88889C4.25 2.93432 4.56718 2.14176 5.20385 1.48151C5.83984 0.821965 6.59568 0.5 7.5 0.5C8.40432 0.5 9.16016 0.821965 9.79615 1.48151C10.4328 2.14176 10.75 2.93432 10.75 3.88889V4.44444V4.94444H11.25H13.2696C13.632 4.94444 13.9116 5.06441 14.1436 5.30557L14.1444 5.30635C14.3779 5.54802 14.5 5.84687 14.5 6.23889V18.2056C14.5 18.5979 14.3781 18.8969 14.1451 19.1385C13.9122 19.38 13.632 19.5 13.2696 19.5H1.73036C1.36766 19.5 1.08794 19.3801 0.855993 19.1396L0.497216 19.4856L0.855993 19.1396C0.622089 18.897 0.5 18.5976 0.5 18.2056V6.23889C0.5 5.84687 0.622073 5.54802 0.855619 5.30635ZM9.0627 13.7904L8.65258 13.5044L9.0627 13.7904C9.06805 13.7827 9.07487 13.7761 9.08277 13.7711C9.08279 13.771 9.08281 13.771 9.08283 13.771L10.9826 12.556L11.0228 12.5303L11.0574 12.4974C11.0633 12.4918 11.0701 12.4872 11.0775 12.4839L10.8737 12.0274L11.0775 12.4839C11.0862 12.4801 11.0956 12.478 11.105 12.4778C11.1145 12.4775 11.124 12.4792 11.1328 12.4827C11.1416 12.4862 11.1497 12.4914 11.1565 12.498C11.1633 12.5047 11.1687 12.5126 11.1724 12.5213L11.1723 12.5214L11.1762 12.5301L12.0351 14.4551C12.0414 14.4717 12.0413 14.4902 12.0348 14.5068C12.0279 14.5242 12.0145 14.5382 11.9975 14.5458C11.9804 14.5534 11.961 14.5541 11.9435 14.5475C11.9267 14.5413 11.913 14.5291 11.9048 14.5133L11.6547 13.9526L11.1328 12.7829L10.7242 13.9968C10.5985 14.3701 10.4099 14.7221 10.1638 15.0366C9.68228 15.6521 9.00861 16.0888 8.25012 16.277C7.49163 16.4653 6.69197 16.3942 5.97854 16.0753C5.2651 15.7563 4.67895 15.2077 4.31346 14.5169C3.94798 13.8262 3.82418 13.033 3.96181 12.2637C4.09944 11.4944 4.49057 10.7933 5.07289 10.2721C5.6552 9.75094 6.39519 9.43962 7.17497 9.38779C7.95463 9.33596 8.72921 9.54653 9.37533 9.98593C9.39099 9.9966 9.40177 10.0131 9.4053 10.0317L9.89655 9.93851L9.4053 10.0317C9.40883 10.0503 9.40482 10.0695 9.39415 10.0852C9.38349 10.1009 9.36703 10.1116 9.34842 10.1152C9.3298 10.1187 9.31054 10.1147 9.29488 10.104L9.29449 10.1038C8.67461 9.68237 7.93154 9.48054 7.18365 9.53043C6.43576 9.58032 5.72608 9.87906 5.16767 10.3791C4.60925 10.8791 4.23423 11.5516 4.10234 12.2894C3.97046 13.0273 4.08929 13.788 4.43991 14.4505C4.79054 15.113 5.35279 15.6391 6.03708 15.945C6.72137 16.2509 7.48835 16.319 8.21583 16.1384C8.94331 15.9578 9.58943 15.539 10.0513 14.9486C10.2595 14.6825 10.4248 14.3884 10.5437 14.0769L11.0841 12.6605L9.80708 13.4775L9.15991 13.8915C9.152 13.8966 9.14316 13.9 9.13392 13.9017C9.12468 13.9033 9.11519 13.9031 9.10602 13.9011C9.09685 13.8991 9.08817 13.8953 9.08045 13.8899C9.07275 13.8846 9.06618 13.8777 9.06112 13.8698C9.05606 13.8619 9.05261 13.8531 9.05096 13.8438C9.04931 13.8346 9.0495 13.8251 9.05151 13.8159C9.05353 13.8067 9.05733 13.7981 9.0627 13.7904ZM4.32143 4.44444V4.94444H4.82143H10.1786H10.6786V4.44444V3.88889C10.6786 2.98477 10.3756 2.19958 9.76492 1.56627C9.15336 0.932055 8.38771 0.611111 7.5 0.611111C6.61229 0.611111 5.84664 0.932054 5.23508 1.56627C4.62438 2.19958 4.32143 2.98477 4.32143 3.88889V4.44444Z" fill="white" stroke="#1C1C1C"/>
</svg>
