<svg width="16" height="22" viewBox="0 0 16 22" fill="none" xmlns="http://www.w3.org/2000/svg">
<g id="Group">
<path id="Vector (Stroke)" fill-rule="evenodd" clip-rule="evenodd" d="M1.5 3.5C1.22386 3.5 1 3.72386 1 4V20C1 20.2761 1.22386 20.5 1.5 20.5H14.5C14.7761 20.5 15 20.2761 15 20V4C15 3.72386 14.7761 3.5 14.5 3.5H1.5ZM0 4C0 3.17157 0.671573 2.5 1.5 2.5H14.5C15.3284 2.5 16 3.17157 16 4V20C16 20.8284 15.3284 21.5 14.5 21.5H1.5C0.671573 21.5 0 20.8284 0 20V4Z" fill="#1C1C1C"/>
<path id="Vector (Stroke)_2" fill-rule="evenodd" clip-rule="evenodd" d="M5 0.5C5.27614 0.5 5.5 0.723858 5.5 1V4C5.5 4.27614 5.27614 4.5 5 4.5C4.72386 4.5 4.5 4.27614 4.5 4V1C4.5 0.723858 4.72386 0.5 5 0.5ZM11 0.5C11.2761 0.5 11.5 0.723858 11.5 1V4C11.5 4.27614 11.2761 4.5 11 4.5C10.7239 4.5 10.5 4.27614 10.5 4V1C10.5 0.723858 10.7239 0.5 11 0.5ZM3.5 8.5C3.5 8.22386 3.72386 8 4 8H12C12.2761 8 12.5 8.22386 12.5 8.5C12.5 8.77614 12.2761 9 12 9H4C3.72386 9 3.5 8.77614 3.5 8.5Z" fill="#1C1C1C"/>
<path id="Vector (Stroke)_3" fill-rule="evenodd" clip-rule="evenodd" d="M6.48467 11.6277C6.88656 11.2258 7.43164 11 8 11C8.56836 11 9.11344 11.2258 9.51533 11.6277C9.91722 12.0296 10.143 12.5746 10.143 13.143C10.143 13.7114 9.91722 14.2564 9.51533 14.6583C9.47587 14.6978 9.43504 14.7355 9.39294 14.7715C9.65899 14.9109 9.90497 15.0907 10.1213 15.3071C10.6839 15.8697 11 16.6328 11 17.4284V18.2858C11 18.5225 10.8081 18.7144 10.5714 18.7144H5.42858C5.19188 18.7144 5 18.5225 5 18.2858V17.4284C5 16.6328 5.31607 15.8697 5.87868 15.3071C6.09503 15.0907 6.34101 14.9109 6.60706 14.7715C6.56496 14.7355 6.52412 14.6978 6.48467 14.6583C6.08278 14.2564 5.857 13.7114 5.857 13.143C5.857 12.5746 6.08278 12.0296 6.48467 11.6277ZM8 14.4288C8.34103 14.4288 8.66808 14.2934 8.90923 14.0522C9.15037 13.8111 9.28584 13.484 9.28584 13.143C9.28584 12.802 9.15037 12.4749 8.90923 12.2338C8.66808 11.9926 8.34103 11.8572 8 11.8572C7.65897 11.8572 7.33192 11.9926 7.09077 12.2338C6.84963 12.4749 6.71416 12.802 6.71416 13.143C6.71416 13.484 6.84963 13.8111 7.09077 14.0522C7.33192 14.2934 7.65897 14.4288 8 14.4288ZM8 15.286C7.43151 15.286 6.88652 15.5115 6.48478 15.9132C6.08292 16.3151 5.85716 16.8601 5.85716 17.4284V17.8573H10.1428V17.4284C10.1428 16.8601 9.91708 16.3151 9.51522 15.9132C9.11348 15.5115 8.56849 15.286 8 15.286Z" fill="#1C1C1C"/>
</g>
</svg>
