<svg width="39" height="49" viewBox="0 0 39 49" fill="none" xmlns="http://www.w3.org/2000/svg">
<path d="M19.5 0C8.7483 0 0.000198519 8.79305 0.000198519 19.5877C-0.0704883 35.378 18.759 48.4708 19.5 49C19.5 49 39.0705 35.378 38.9998 19.6C38.9998 8.79305 30.2517 0 19.5 0Z" fill="#1C1C1C"/>
<path fill-rule="evenodd" clip-rule="evenodd" d="M9.73394 17.0242C9.64597 16.6727 9.51436 16.2772 8.6797 16.2772C7.84503 16.2772 7.71411 16.5848 7.71411 16.8484C7.71411 17.7711 11.4476 17.1121 11.4476 19.2652C11.4476 20.9788 9.77963 21.2864 8.85609 21.2864C7.49453 21.2864 6.0457 20.847 6 19.2652H7.62523C7.62523 19.7484 7.93277 20.1 8.89904 20.1C9.68961 20.1 9.90919 19.7045 9.90919 19.485C9.90919 18.5182 6.21958 19.2652 6.21958 17.0683C6.22003 16.2334 6.74715 15.1348 8.63583 15.1348C9.77826 15.1348 11.1835 15.3985 11.3151 17.0683H9.73394V17.0242Z" fill="white"/>
<path fill-rule="evenodd" clip-rule="evenodd" d="M20.1872 21.0665H18.6061V17.5513C18.6061 16.6725 18.2108 16.4088 17.7716 16.4088C16.9811 16.4088 16.7174 16.8921 16.7174 17.5951V21.0665H15.1801V17.5513C15.1801 17.068 15.1801 16.365 14.2577 16.365C13.511 16.365 13.2915 16.8482 13.2915 17.5074V21.0665H11.7103V15.2664H13.2037V16.1013H13.2476C13.3944 15.7865 13.6314 15.5223 13.9286 15.3424C14.2258 15.1625 14.5697 15.0749 14.9167 15.0907C15.7952 15.0907 16.1466 15.3982 16.5846 16.0133C16.8056 15.7499 17.2006 15.0907 18.1669 15.0907C19.3094 15.0907 20.2313 15.7499 20.2313 17.0242V21.0665H20.1872Z" fill="white"/>
<path fill-rule="evenodd" clip-rule="evenodd" d="M26.2927 19.397C25.8974 20.8031 24.7115 21.2425 23.7012 21.2425C22.0332 21.2425 20.7582 20.4515 20.7582 18.0789C20.7585 17.3758 21.0219 15.1348 23.6146 15.1348C24.8004 15.1348 26.4249 15.6621 26.4249 18.3423V18.606H22.3396C22.3835 19.0454 22.4714 20.0121 23.745 20.0121C23.9562 20.026 24.1666 19.9744 24.3474 19.8643C24.5282 19.7542 24.6706 19.591 24.7552 19.397H26.2927ZM24.7554 17.5954C24.6677 16.6727 24.0528 16.3652 23.5689 16.3652C22.8222 16.3652 22.4264 16.8046 22.3389 17.5956L24.7554 17.5954Z" fill="white"/>
<path fill-rule="evenodd" clip-rule="evenodd" d="M32.6614 15.0909V20.4076C32.6614 21.3743 32.5737 23 29.6746 23C28.4447 23 27.1711 22.5168 27.0831 21.3302H28.7968C28.8845 21.5939 28.9725 21.9014 29.8949 21.9014C30.7293 21.9014 31.1248 21.5059 31.1248 20.6272V19.9682H31.081C30.8175 20.4076 30.4222 20.8031 29.4998 20.8031C28.0503 20.8031 26.9522 19.8805 26.9522 17.9031C26.9515 15.9697 28.094 15.003 29.4112 15.003C29.7652 14.9831 30.1177 15.0633 30.4283 15.2342C30.739 15.4052 30.9953 15.66 31.168 15.9697H31.2119V15.0909H32.6614ZM29.7619 19.4409C30.8162 19.4409 31.0796 18.606 31.0796 17.8152C31.0796 16.8925 30.5963 16.1895 29.7619 16.1895C29.1907 16.1895 28.532 16.585 28.532 17.9031C28.532 18.6062 28.8395 19.4409 29.7619 19.4409Z" fill="white"/>
</svg>
