<svg width="20" height="20" viewBox="0 0 20 20" fill="none" xmlns="http://www.w3.org/2000/svg">
<g id="minus">
<circle id="Ellipse 1" cx="10" cy="10" r="10" fill="white"/>
<path id="Vector" d="M10 20C4.47059 20 0 15.5294 0 10C0 4.47059 4.47059 0 10 0C15.5294 0 20 4.47059 20 10C20 15.5294 15.5294 20 10 20ZM10 1.17647C5.11765 1.17647 1.17647 5.11765 1.17647 10C1.17647 14.8824 5.11765 18.8235 10 18.8235C14.8824 18.8235 18.8235 14.8824 18.8235 10C18.8235 5.11765 14.8824 1.17647 10 1.17647Z" fill="#CCCCCC"/>
<path id="Vector_2" d="M4.70599 9.41174H15.2942V10.5882H4.70599V9.41174Z" fill="#666666"/>
</g>
</svg>
