<svg width="30" height="30" viewBox="0 0 30 30" fill="none" xmlns="http://www.w3.org/2000/svg">
<path fill-rule="evenodd" clip-rule="evenodd" d="M8.14 24.4625C8.04647 24.3823 7.96965 24.2845 7.91394 24.1746C7.85823 24.0648 7.82472 23.945 7.81532 23.8222C7.80591 23.6994 7.8208 23.5759 7.85914 23.4588C7.89748 23.3418 7.95851 23.2334 8.03875 23.14L15.015 15L8.03875 6.85996C7.95766 6.76662 7.89584 6.65815 7.85684 6.54081C7.81784 6.42348 7.80245 6.29958 7.81153 6.17627C7.82061 6.05295 7.854 5.93266 7.90977 5.8223C7.96554 5.71194 8.04259 5.61371 8.13648 5.53325C8.23037 5.4528 8.33925 5.39171 8.45685 5.35351C8.57445 5.31531 8.69844 5.30075 8.82169 5.31067C8.94494 5.32058 9.06501 5.35478 9.17499 5.4113C9.28497 5.46782 9.38268 5.54552 9.4625 5.63996L16.9625 14.39C17.1081 14.5599 17.1881 14.7762 17.1881 15C17.1881 15.2237 17.1081 15.4401 16.9625 15.61L9.4625 24.36C9.38234 24.4535 9.28453 24.5303 9.17467 24.586C9.06481 24.6417 8.94505 24.6752 8.82223 24.6846C8.69941 24.694 8.57594 24.6792 8.45888 24.6408C8.34182 24.6025 8.23346 24.5414 8.14 24.4612M13.14 24.4612C13.0465 24.381 12.9697 24.2832 12.9139 24.1734C12.8582 24.0635 12.8247 23.9438 12.8153 23.8209C12.8059 23.6981 12.8208 23.5747 12.8591 23.4576C12.8975 23.3405 12.9585 23.2322 13.0387 23.1387L20.015 15L13.0387 6.85996C12.9539 6.76727 12.8885 6.65846 12.8465 6.54C12.8045 6.42154 12.7868 6.29585 12.7943 6.17039C12.8019 6.04494 12.8346 5.92229 12.8905 5.80973C12.9464 5.69717 13.0244 5.59701 13.1198 5.51519C13.2152 5.43337 13.3261 5.37157 13.4459 5.33346C13.5656 5.29535 13.6918 5.2817 13.817 5.29334C13.9421 5.30499 14.0636 5.34167 14.1743 5.40121C14.285 5.46076 14.3826 5.54195 14.4612 5.63996L21.9612 14.39C22.1068 14.5599 22.1868 14.7762 22.1868 15C22.1868 15.2237 22.1068 15.4401 21.9612 15.61L14.4612 24.36C14.2994 24.5485 14.0693 24.665 13.8216 24.684C13.5738 24.703 13.3287 24.6229 13.14 24.4612Z" fill="#333333"/>
</svg>
