<svg width="17" height="22" viewBox="0 0 17 22" fill="none" xmlns="http://www.w3.org/2000/svg">
<path d="M8.49985 11.0006C7.17369 11.0006 5.90184 10.4738 4.9641 9.53605C4.02637 8.59831 3.49955 7.32646 3.49955 6.0003C3.49955 4.67414 4.02637 3.40229 4.9641 2.46455C5.90184 1.52682 7.17369 1 8.49985 1C9.82601 1 11.0979 1.52682 12.0356 2.46455C12.9733 3.40229 13.5002 4.67414 13.5002 6.0003C13.5002 7.32646 12.9733 8.59831 12.0356 9.53605C11.0979 10.4738 9.82601 11.0006 8.49985 11.0006ZM8.49985 11.0006C10.4889 11.0006 12.3966 11.7896 13.803 13.1961C15.2095 14.6025 15.9997 16.5102 15.9997 18.4992V21H1V18.4992C1 16.5102 1.79016 14.6025 3.19665 13.1961C4.60315 11.7896 6.51077 11.0006 8.49985 11.0006Z" stroke="#666666" stroke-linecap="round" stroke-linejoin="round"/>
</svg>
