<svg width="15" height="20" viewBox="0 0 15 20" fill="none" xmlns="http://www.w3.org/2000/svg">
<path d="M10.3318 8.73L10.6929 8.38419C10.6856 8.37654 10.684 8.37258 10.6833 8.37068C10.6823 8.36818 10.6786 8.35756 10.6786 8.33333V5.55556V5.05556H10.1786H4.82143H4.32143V5.55556V8.33333C4.32143 8.35756 4.31767 8.36818 4.31671 8.37068C4.31602 8.37246 4.3146 8.37606 4.30838 8.38282C4.30581 8.38537 4.30405 8.38681 4.30316 8.38749C4.30289 8.38755 4.30256 8.38762 4.30216 8.38769C4.2999 8.38812 4.29467 8.38889 4.28571 8.38889C4.27676 8.38889 4.27152 8.38812 4.26927 8.38769C4.26887 8.38762 4.26854 8.38755 4.26827 8.38749C4.26726 8.38672 4.26511 8.38496 4.26193 8.38168L3.90322 8.72999L4.26434 8.38419C4.25701 8.37654 4.25545 8.37258 4.25472 8.37068C4.25376 8.36818 4.25 8.35756 4.25 8.33333V5.55556V5.05556H3.75H1.73036C1.40354 5.05556 1.12936 5.20297 0.918123 5.42089L0.918118 5.42088L0.916321 5.42276C0.705483 5.64254 0.571429 5.91859 0.571429 6.23889V18.2056C0.571429 18.5259 0.705482 18.8019 0.916318 19.0217L0.918121 19.0236C1.12936 19.2415 1.40354 19.3889 1.73036 19.3889H13.2696C13.5965 19.3889 13.8706 19.2415 14.0819 19.0236L14.0837 19.0217C14.2945 18.8019 14.4286 18.5259 14.4286 18.2056V6.23889C14.4286 5.91859 14.2945 5.64254 14.0837 5.42275L14.0819 5.42089C13.8706 5.20297 13.5965 5.05556 13.2696 5.05556H11.25H10.75V5.55556V8.33333C10.75 8.35756 10.7462 8.36818 10.7453 8.37068C10.7446 8.37246 10.7432 8.37606 10.7369 8.38282C10.7344 8.38537 10.7326 8.38681 10.7317 8.38749C10.7315 8.38755 10.7311 8.38762 10.7307 8.38769C10.7285 8.38812 10.7232 8.38889 10.7143 8.38889C10.7053 8.38889 10.7001 8.38812 10.6978 8.38769C10.6974 8.38762 10.6971 8.38755 10.6968 8.38749C10.6958 8.38672 10.6937 8.38496 10.6905 8.38168L10.3318 8.73ZM10.3318 8.73C10.4346 8.83593 10.5621 8.88889 10.7143 8.88889C10.8664 8.88889 10.9939 8.83593 11.0968 8.73L3.75 8.33333C3.75 8.49111 3.80107 8.62333 3.90321 8.73C4.00607 8.83593 4.13357 8.88889 4.28571 8.88889C4.43786 8.88889 4.56536 8.83593 4.66821 8.73C4.77036 8.62333 4.82143 8.49111 4.82143 8.33333V6.05556V5.55556H5.32143H9.67857H10.1786V6.05556V8.33333C10.1786 8.49111 10.2296 8.62333 10.3318 8.73ZM0.855619 5.30635L0.856368 5.30557C1.08841 5.06441 1.36802 4.94444 1.73036 4.94444H3.75H4.25V4.44444V3.88889C4.25 2.93432 4.56718 2.14176 5.20385 1.48151C5.83984 0.821965 6.59568 0.5 7.5 0.5C8.40432 0.5 9.16016 0.821965 9.79615 1.48151C10.4328 2.14176 10.75 2.93432 10.75 3.88889V4.44444V4.94444H11.25H13.2696C13.632 4.94444 13.9116 5.06441 14.1436 5.30557L14.1444 5.30635C14.3779 5.54802 14.5 5.84687 14.5 6.23889V18.2056C14.5 18.5979 14.3781 18.8969 14.1451 19.1385C13.9122 19.38 13.632 19.5 13.2696 19.5H1.73036C1.36766 19.5 1.08794 19.3801 0.855993 19.1396L0.497216 19.4856L0.855993 19.1396C0.622089 18.897 0.5 18.5976 0.5 18.2056V6.23889C0.5 5.84687 0.622073 5.54802 0.855619 5.30635ZM4.32143 4.44444V4.94444H4.82143H10.1786H10.6786V4.44444V3.88889C10.6786 2.98477 10.3756 2.19958 9.76492 1.56627C9.15336 0.932055 8.38771 0.611111 7.5 0.611111C6.61229 0.611111 5.84664 0.932055 5.23508 1.56627L5.595 1.91333L5.23508 1.56627C4.62438 2.19958 4.32143 2.98477 4.32143 3.88889V4.44444Z" fill="white" stroke="#1C1C1C"/>
</svg>
