<svg width="30" height="30" viewBox="0 0 30 30" fill="none" xmlns="http://www.w3.org/2000/svg">
<path fill-rule="evenodd" clip-rule="evenodd" d="M21.86 5.53751C21.9535 5.61767 22.0303 5.71547 22.0861 5.82534C22.1418 5.9352 22.1753 6.05496 22.1847 6.17778C22.1941 6.3006 22.1792 6.42407 22.1409 6.54113C22.1025 6.65819 22.0415 6.76655 21.9613 6.86001L14.985 15L21.9613 23.14C22.0423 23.2334 22.1042 23.3418 22.1432 23.4592C22.1822 23.5765 22.1976 23.7004 22.1885 23.8237C22.1794 23.947 22.146 24.0673 22.0902 24.1777C22.0345 24.288 21.9574 24.3863 21.8635 24.4667C21.7696 24.5472 21.6607 24.6083 21.5431 24.6465C21.4255 24.6847 21.3016 24.6992 21.1783 24.6893C21.0551 24.6794 20.935 24.6452 20.825 24.5887C20.715 24.5322 20.6173 24.4544 20.5375 24.36L13.0375 15.61C12.8919 15.4401 12.8119 15.2237 12.8119 15C12.8119 14.7763 12.8919 14.5599 13.0375 14.39L20.5375 5.64001C20.6177 5.54648 20.7155 5.46967 20.8253 5.41396C20.9352 5.35825 21.055 5.32473 21.1778 5.31533C21.3006 5.30592 21.4241 5.32082 21.5411 5.35915C21.6582 5.39749 21.7665 5.45852 21.86 5.53876M16.86 5.53876C16.9535 5.61892 17.0303 5.71672 17.0861 5.82659C17.1418 5.93645 17.1753 6.05621 17.1847 6.17903C17.1941 6.30185 17.1792 6.42532 17.1409 6.54238C17.1025 6.65944 17.0415 6.7678 16.9613 6.86126L9.985 15L16.9613 23.14C17.0461 23.2327 17.1115 23.3415 17.1535 23.46C17.1955 23.5784 17.2132 23.7041 17.2057 23.8296C17.1981 23.955 17.1654 24.0777 17.1095 24.1902C17.0536 24.3028 16.9756 24.403 16.8802 24.4848C16.7848 24.5666 16.6739 24.6284 16.5541 24.6665C16.4344 24.7046 16.3082 24.7183 16.183 24.7066C16.0579 24.695 15.9364 24.6583 15.8257 24.5988C15.715 24.5392 15.6174 24.458 15.5388 24.36L8.03875 15.61C7.89317 15.4401 7.81316 15.2237 7.81316 15C7.81316 14.7763 7.89317 14.5599 8.03875 14.39L15.5388 5.64001C15.7006 5.45149 15.9307 5.33493 16.1784 5.31595C16.4262 5.29696 16.6713 5.3771 16.86 5.53876Z" fill="#333333"/>
</svg>
